<?xml version="1.0" encoding="UTF-8"?><svg id="_レイヤー_1" xmlns="http://www.w3.org/2000/svg" viewBox="0 0 50 50"><path d="M3.01,12.99c.56,0,1.01,.45,1.01,1.01s-.45,1.01-1.01,1.01-1.01-.45-1.01-1.01,.45-1.01,1.01-1.01m0-2C1.35,10.99,0,12.33,0,14s1.35,3.01,3.01,3.01,3.01-1.35,3.01-3.01-1.35-3.01-3.01-3.01h0Z"/><path d="M46.99,12.99c.56,0,1.01,.45,1.01,1.01s-.45,1.01-1.01,1.01H13.55c-.56,0-1.01-.45-1.01-1.01s.45-1.01,1.01-1.01H46.99m0-2H13.55c-1.66,0-3.01,1.35-3.01,3.01h0c0,1.66,1.35,3.01,3.01,3.01H46.99c1.66,0,3.01-1.35,3.01-3.01h0c0-1.66-1.35-3.01-3.01-3.01h0Z"/><path d="M3.01,23.98c.56,0,1.01,.45,1.01,1.01s-.45,1.01-1.01,1.01-1.01-.45-1.01-1.01,.45-1.01,1.01-1.01m0-2C1.35,21.98,0,23.32,0,24.98s1.35,3.01,3.01,3.01,3.01-1.35,3.01-3.01-1.35-3.01-3.01-3.01h0Z"/><path d="M46.99,23.98c.56,0,1.01,.45,1.01,1.01s-.45,1.01-1.01,1.01H13.55c-.56,0-1.01-.45-1.01-1.01s.45-1.01,1.01-1.01H46.99m0-2H13.55c-1.66,0-3.01,1.35-3.01,3.01h0c0,1.66,1.35,3.01,3.01,3.01H46.99c1.66,0,3.01-1.35,3.01-3.01h0c0-1.66-1.35-3.01-3.01-3.01h0Z"/><path d="M3.01,34.96c.56,0,1.01,.45,1.01,1.01s-.45,1.01-1.01,1.01-1.01-.45-1.01-1.01,.45-1.01,1.01-1.01m0-2C1.35,32.96,0,34.31,0,35.97s1.35,3.01,3.01,3.01,3.01-1.35,3.01-3.01-1.35-3.01-3.01-3.01h0Z"/><path d="M46.99,34.96c.56,0,1.01,.45,1.01,1.01s-.45,1.01-1.01,1.01H13.55c-.56,0-1.01-.45-1.01-1.01s.45-1.01,1.01-1.01H46.99m0-2H13.55c-1.66,0-3.01,1.35-3.01,3.01h0c0,1.66,1.35,3.01,3.01,3.01H46.99c1.66,0,3.01-1.35,3.01-3.01h0c0-1.66-1.35-3.01-3.01-3.01h0Z"/></svg>