<?xml version="1.0" encoding="UTF-8"?><svg id="_レイヤー_2" xmlns="http://www.w3.org/2000/svg" viewBox="0 0 50 27.99"><defs><style>.cls-1{fill:#fff;}.cls-2{fill:#fbb03b;}</style></defs><g id="_レイヤー_1-2"><rect class="cls-2" y="0" width="50" height="27.99"/><g><path class="cls-1" d="M3.01,5.02c-1.11,0-2.01-.9-2.01-2.01S1.9,1,3.01,1s2.01,.9,2.01,2.01-.9,2.01-2.01,2.01Z"/><path d="M3.01,2c.56,0,1.01,.45,1.01,1.01s-.45,1.01-1.01,1.01-1.01-.45-1.01-1.01,.45-1.01,1.01-1.01M3.01,0C1.35,0,0,1.35,0,3.01s1.35,3.01,3.01,3.01,3.01-1.35,3.01-3.01S4.67,0,3.01,0h0Z"/></g><g><path class="cls-1" d="M13.55,5.02c-1.11,0-2.01-.9-2.01-2.01s.9-2.01,2.01-2.01H46.99c1.11,0,2.01,.9,2.01,2.01s-.9,2.01-2.01,2.01H13.55Z"/><path d="M46.99,2c.56,0,1.01,.45,1.01,1.01s-.45,1.01-1.01,1.01H13.55c-.56,0-1.01-.45-1.01-1.01s.45-1.01,1.01-1.01H46.99m0-2H13.55c-1.66,0-3.01,1.35-3.01,3.01s1.35,3.01,3.01,3.01H46.99c1.66,0,3.01-1.35,3.01-3.01s-1.35-3.01-3.01-3.01h0Z"/></g><g><path class="cls-1" d="M3.01,16c-1.11,0-2.01-.9-2.01-2.01s.9-2.01,2.01-2.01,2.01,.9,2.01,2.01-.9,2.01-2.01,2.01Z"/><path d="M3.01,12.99c.56,0,1.01,.45,1.01,1.01s-.45,1.01-1.01,1.01-1.01-.45-1.01-1.01,.45-1.01,1.01-1.01m0-2C1.35,10.99,0,12.33,0,14s1.35,3.01,3.01,3.01,3.01-1.35,3.01-3.01-1.35-3.01-3.01-3.01h0Z"/></g><g><path class="cls-1" d="M13.55,16c-1.11,0-2.01-.9-2.01-2.01s.9-2.01,2.01-2.01H46.99c1.11,0,2.01,.9,2.01,2.01s-.9,2.01-2.01,2.01H13.55Z"/><path d="M46.99,12.99c.56,0,1.01,.45,1.01,1.01s-.45,1.01-1.01,1.01H13.55c-.56,0-1.01-.45-1.01-1.01s.45-1.01,1.01-1.01H46.99m0-2H13.55c-1.66,0-3.01,1.35-3.01,3.01s1.35,3.01,3.01,3.01H46.99c1.66,0,3.01-1.35,3.01-3.01s-1.35-3.01-3.01-3.01h0Z"/></g><g><path class="cls-1" d="M3.01,26.99c-1.11,0-2.01-.9-2.01-2.01s.9-2.01,2.01-2.01,2.01,.9,2.01,2.01-.9,2.01-2.01,2.01Z"/><path d="M3.01,23.98c.56,0,1.01,.45,1.01,1.01s-.45,1.01-1.01,1.01-1.01-.45-1.01-1.01,.45-1.01,1.01-1.01m0-2C1.35,21.98,0,23.32,0,24.98s1.35,3.01,3.01,3.01,3.01-1.35,3.01-3.01-1.35-3.01-3.01-3.01h0Z"/></g><g><path class="cls-1" d="M13.55,26.99c-1.11,0-2.01-.9-2.01-2.01s.9-2.01,2.01-2.01H46.99c1.11,0,2.01,.9,2.01,2.01s-.9,2.01-2.01,2.01H13.55Z"/><path d="M46.99,23.98c.56,0,1.01,.45,1.01,1.01s-.45,1.01-1.01,1.01H13.55c-.56,0-1.01-.45-1.01-1.01s.45-1.01,1.01-1.01H46.99m0-2H13.55c-1.66,0-3.01,1.35-3.01,3.01s1.35,3.01,3.01,3.01H46.99c1.66,0,3.01-1.35,3.01-3.01s-1.35-3.01-3.01-3.01h0Z"/></g></g></svg>