<?xml version="1.0" encoding="UTF-8"?><svg id="_レイヤー_1" xmlns="http://www.w3.org/2000/svg" viewBox="0 0 50 50"><defs><style>.cls-1{fill:#fff;}.cls-2{stroke:#fbb03b;stroke-miterlimit:10;stroke-width:4px;}</style></defs><g><path class="cls-1" d="M5.34,49c-.32,0-.56-.21-.72-.39-.41-.48-.58-1.22-.47-1.95,1.65-10.16,10.42-17.54,20.84-17.54,4.46,0,8.71,1.35,12.31,3.91l2.28,15.96H5.34Z"/><path d="M25,30.13c4.11,0,8.03,1.2,11.38,3.49l2.05,14.39H5.42c-.14-.12-.37-.57-.27-1.18,1.57-9.67,9.92-16.7,19.85-16.7m0-2c-11.01,0-20.13,7.96-21.83,18.38-.29,1.8,.77,3.5,2.17,3.5H40.74s-2.5-17.52-2.5-17.52c-3.69-2.73-8.27-4.35-13.24-4.35h0Z"/></g><g><path class="cls-1" d="M23.13,20.88c-3.58,0-6.5-2.92-6.5-6.5v-1.88c0-4.62,3.76-8.38,8.38-8.38s8.38,3.76,8.38,8.38v1.88c0,3.58-2.92,6.5-6.5,6.5h-3.75Z"/><path d="M25,5.12c4.07,0,7.38,3.31,7.38,7.38v1.88c0,3.03-2.47,5.5-5.5,5.5h-3.75c-3.03,0-5.5-2.47-5.5-5.5v-1.88c0-4.07,3.31-7.38,7.38-7.38m0-2c-5.18,0-9.38,4.2-9.38,9.38v1.88c0,4.14,3.36,7.5,7.5,7.5h3.75c4.14,0,7.5-3.36,7.5-7.5v-1.88c0-5.18-4.2-9.38-9.38-9.38h0Z"/></g><polyline class="cls-2" points="36.65 28.13 36.65 36.65 28.12 36.65 28.12 39.87 28.12 41.47 36.65 41.47 36.65 50"/><polygon points="41.47 36.65 41.47 28.13 39.87 28.13 36.65 28.13 36.65 36.65 28.12 36.65 28.12 39.87 28.12 41.47 36.65 41.47 36.65 50 39.87 50 41.47 50 41.47 41.47 50 41.47 50 39.87 50 36.65 41.47 36.65"/></svg>