<?xml version="1.0" encoding="UTF-8"?><svg id="_レイヤー_1" xmlns="http://www.w3.org/2000/svg" viewBox="0 0 50 50"><defs><style>.cls-1{stroke:#fbb03b;stroke-miterlimit:10;stroke-width:4px;}</style></defs><path d="M38.24,32.48c-3.69-2.73-8.27-4.35-13.24-4.35-11.01,0-20.13,7.96-21.83,18.38-.29,1.8,.77,3.5,2.17,3.5h30.42l2.47-17.52Z"/><path d="M25,3.13h0c5.17,0,9.38,4.2,9.38,9.38v1.88c0,4.14-3.36,7.5-7.5,7.5h-3.75c-4.14,0-7.5-3.36-7.5-7.5v-1.88c0-5.17,4.2-9.38,9.38-9.38Z"/><polyline class="cls-1" points="36.65 28.13 36.65 36.65 28.12 36.65 28.12 39.87 28.12 41.47 36.65 41.47 36.65 50"/><polygon points="41.47 36.65 41.47 28.13 39.87 28.13 36.65 28.13 36.65 36.65 28.12 36.65 28.12 39.87 28.12 41.47 36.65 41.47 36.65 50 39.87 50 41.47 50 41.47 41.47 50 41.47 50 39.87 50 36.65 41.47 36.65"/></svg>