<?xml version="1.0" encoding="UTF-8"?><svg id="_レイヤー_1" xmlns="http://www.w3.org/2000/svg" viewBox="0 0 50 50"><defs><style>.cls-1{fill:#fff;}.cls-2{fill:none;stroke:#000;stroke-linecap:round;stroke-linejoin:round;stroke-width:2px;}</style></defs><polyline class="cls-2" points="4.26 20.62 4.26 4.26 20.9 4.26"/><g><path d="M43.61,2.17l4.22,4.22L10.18,44.04l-7.81,3.59,3.59-7.81L43.61,2.17M43.61-.03c-.39,0-.77,.15-1.07,.44L4.3,38.66,.17,47.63c-.54,1.17,.37,2.36,1.5,2.36,.23,0,.47-.05,.7-.16l8.97-4.13L49.59,7.45c.59-.59,.59-1.54,0-2.13L44.68,.41c-.29-.29-.68-.44-1.07-.44h0Z"/><g><path class="cls-1" d="M1.67,48.99c-.22,0-.43-.12-.56-.32-.09-.13-.16-.35-.04-.62l1.72-3.76,2.91,2.91-3.76,1.73c-.1,.04-.19,.07-.29,.07Z"/><path d="M3.11,46.01l.88,.88-1.62,.75,.74-1.62m-.62-3.45L.17,47.63c-.54,1.17,.37,2.36,1.5,2.36,.23,0,.47-.05,.7-.16l5.06-2.33-4.94-4.94h0Z"/></g><g><path class="cls-1" d="M5.71,38.66L43.26,1.11c.13-.13,.28-.15,.36-.15s.23,.02,.36,.15l4.91,4.91c.13,.13,.15,.28,.15,.36s-.02,.23-.15,.36L11.34,44.29l-5.63-5.63Z"/><path d="M43.61,2.17l4.22,4.22L11.34,42.88l-4.22-4.22L43.61,2.17m0-2.2c-.39,0-.77,.15-1.07,.44L4.3,38.66l7.04,7.04L49.59,7.45c.59-.59,.59-1.54,0-2.13L44.68,.41c-.29-.29-.68-.44-1.07-.44h0Z"/></g></g><polyline class="cls-2" points="45.61 29.38 45.61 45.74 28.97 45.74"/></svg>