<?xml version="1.0" encoding="UTF-8"?><svg id="_レイヤー_2" xmlns="http://www.w3.org/2000/svg" viewBox="0 0 50.02 50.02"><defs><style>.cls-1{fill:none;stroke:#000;stroke-linecap:round;stroke-linejoin:round;stroke-width:2px;}</style></defs><g id="_レイヤー_1-2"><polyline class="cls-1" points="4.25 20.66 4.25 4.29 20.89 4.29"/><g><path d="M43.6,2.2l4.22,4.22L10.17,44.07l-7.81,3.59,3.59-7.81L43.6,2.2m0-2.2c-.39,0-.77,.15-1.07,.44L4.28,38.69,.16,47.66c-.54,1.17,.37,2.36,1.5,2.36,.23,0,.47-.05,.7-.16l8.97-4.13L49.58,7.49c.59-.59,.59-1.54,0-2.13L44.67,.44c-.29-.29-.68-.44-1.07-.44h0Z"/><g><path d="M1.66,49.02c-.22,0-.43-.12-.56-.32-.09-.13-.16-.35-.04-.62l1.72-3.76,2.91,2.91-3.76,1.73c-.1,.04-.19,.07-.29,.07Z"/><path d="M3.1,46.04l.88,.88-1.62,.75,.74-1.62m-.62-3.45L.16,47.66c-.54,1.17,.37,2.36,1.5,2.36,.23,0,.47-.05,.7-.16l5.06-2.33-4.94-4.94h0Z"/></g><g><path d="M5.7,38.69L43.24,1.15c.13-.13,.28-.15,.36-.15,.13,0,.26,.05,.36,.15l4.91,4.91c.2,.2,.2,.52,0,.72L11.33,44.32l-5.63-5.63Z"/><path d="M43.6,2.2l4.22,4.22L11.33,42.91l-4.22-4.22L43.6,2.2m0-2.2c-.39,0-.77,.15-1.07,.44L4.28,38.69l7.04,7.04L49.58,7.49c.59-.59,.59-1.54,0-2.13L44.67,.44c-.29-.29-.68-.44-1.07-.44h0Z"/></g></g><polyline class="cls-1" points="45.6 29.41 45.6 45.78 28.96 45.78"/></g></svg>