<?xml version="1.0" encoding="UTF-8"?><svg id="_レイヤー_1" xmlns="http://www.w3.org/2000/svg" viewBox="0 0 50 50"><defs><style>.cls-1{fill:#fff;}</style></defs><g><path class="cls-1" d="M21.46,49.03c-4.22,0-5.78-1.9-6.81-3.15-.21-.25-.39-.47-.56-.65l-.22-.22-7-1.42V25.81l6.81-1.18,.15-.07c6.62-3.42,8.09-10.23,8.62-15.79,.63-6.5,2.18-7.78,4.64-7.78,.42,0,.73,.13,1,.43,1.74,1.9,1.34,9.43,.72,16.54-.06,.63,.16,1.27,.58,1.73,.42,.45,1,.71,1.61,.71h12.66c1.59,0,3.08,.73,4.09,2,1.08,1.35,1.47,3.11,1.08,4.82l-4.53,19.78c-.27,1.19-1.28,2.02-2.45,2.02H21.46Z"/><path d="M27.1,2c.17,0,.21,.03,.27,.1,1.68,1.83,.76,12.33,.46,15.78-.08,.91,.23,1.82,.84,2.5,.6,.66,1.46,1.04,2.35,1.04h12.66c1.28,0,2.49,.59,3.31,1.62,.89,1.11,1.21,2.56,.89,3.97l-4.53,19.78c-.17,.73-.77,1.25-1.47,1.25H21.46c-3.75,0-5.01-1.54-6.03-2.78-.21-.25-.4-.49-.61-.71l-.43-.45-.61-.12-5.9-1.2V26.65l5.75-.99,.33-.03,.34-.18c7.05-3.65,8.6-10.77,9.16-16.58,.66-6.87,2.25-6.87,3.65-6.87M27.1,0C23.58,0,22.07,2.37,21.46,8.68c-.61,6.31-2.29,12-8.09,14.99h-.02s-7.49,1.29-7.49,1.29v19.44l7.5,1.53c1.07,1.1,2.59,4.1,8.09,4.1h20.41c1.63,0,3.05-1.16,3.42-2.8l4.53-19.78c.94-4.11-2.07-8.04-6.15-8.04h-12.66c-.71,0-1.26-.63-1.2-1.36C30.89,5.73,30.49,0,27.1,0h0Z"/></g><g><path class="cls-1" d="M3.66,49.03c-1.46,0-2.66-1.19-2.66-2.66V24.09c0-1.46,1.19-2.66,2.66-2.66h5.96c1.38,0,2.51,1.03,2.64,2.4,0,.08,.01,.17,.01,.25v22.28c0,1.46-1.19,2.66-2.66,2.66H3.66Z"/><path d="M9.62,22.44c.86,0,1.57,.64,1.65,1.49,0,.05,0,.11,0,.16v22.28c0,.91-.74,1.66-1.66,1.66H3.66c-.91,0-1.66-.74-1.66-1.66V24.09c0-.91,.74-1.66,1.66-1.66h5.96m0-2H3.66C1.64,20.44,0,22.07,0,24.09v22.28C0,48.39,1.64,50.03,3.66,50.03h5.96c2.02,0,3.66-1.64,3.66-3.66V24.09c0-.12,0-.23-.02-.35-.18-1.86-1.74-3.31-3.64-3.31h0Z"/></g></svg>