<?xml version="1.0" encoding="UTF-8"?><svg id="_レイヤー_2" xmlns="http://www.w3.org/2000/svg" viewBox="0 0 49.9 50"><g id="_レイヤー_1-2"><g><rect x="1.5" y="21.9" width="10.27" height="26.6" rx="2.16" ry="2.16"/><path d="M9.62,23.4c.36,0,.66,.29,.66,.66v22.28c0,.36-.29,.66-.66,.66H3.66c-.36,0-.66-.29-.66-.66V24.06c0-.36,.29-.66,.66-.66h5.96m0-3H3.66c-2.02,0-3.66,1.64-3.66,3.66v22.28c0,2.02,1.64,3.66,3.66,3.66h5.96c2.02,0,3.66-1.64,3.66-3.66V24.06c0-2.02-1.64-3.66-3.66-3.66h0Z"/></g><g><path d="M21.36,48.5c-2.69,0-4.18-.8-5.09-1.56V23.57c4.92-3.79,6.11-9.8,6.58-14.67,.66-6.83,2.34-7.4,4.16-7.4,.67,0,1.14,.23,1.51,.75,1.76,2.44,.87,9.86-.96,15.35-.24,.73-.12,1.52,.35,2.16,.52,.72,1.39,1.17,2.27,1.17l13.39,.03c1.44,0,2.79,.66,3.71,1.81,.98,1.23,1.33,2.82,.98,4.37l-4.53,19.73c-.22,.96-1.03,1.63-1.96,1.63H21.36Z"/><path d="M27.01,3c.15,0,.2,.02,.2,.02,1.04,.61,1.3,6.99-1.07,14.1-.4,1.19-.2,2.47,.56,3.51,.8,1.1,2.13,1.79,3.48,1.79l13.4,.03c1.34,0,2.16,.78,2.53,1.25,.69,.87,.94,2,.69,3.1l-4.53,19.73c-.06,.27-.27,.46-.5,.46H21.36c-1.74,0-2.84-.37-3.59-.82V24.28c4.89-4.14,6.09-10.25,6.57-15.24,.59-6.04,1.79-6.04,2.66-6.04m0-3c-3.52,0-5.04,2.46-5.65,8.76-.55,5.71-2,10.9-6.59,14.05v24.8c1.19,1.17,3.07,2.39,6.59,2.39h20.41c1.63,0,3.05-1.16,3.42-2.79l4.53-19.73c.94-4.09-2.07-8.02-6.15-8.02l-13.4-.03c-.71,0-1.43-.66-1.2-1.35,2.11-6.32,3.87-18.07-1.98-18.07h0Z"/></g></g></svg>