<?xml version="1.0" encoding="UTF-8"?><svg id="_レイヤー_2" xmlns="http://www.w3.org/2000/svg" viewBox="0 0 48.85 46.62"><defs><style>.cls-1{fill:#fff;}.cls-1,.cls-2{stroke:#000;stroke-linecap:round;stroke-linejoin:round;}.cls-2{fill:#fbb03b;stroke-width:2px;}</style></defs><g id="_白い"><path class="cls-2" d="M14.21,10.42c-6.53,.73-10.83,2.85-11.02,3.43-.11,.35-.37,1.14,1.3,4.13v.02c-3.11,1.44-3.36,2.22-3.48,2.58-.19,.58,2.04,4.84,6.89,9.27-1.32,6.43-.64,11.18-.14,11.54,.3,.21,.97,.7,4.33,.04h.02c.41,3.41,1.08,3.89,1.38,4.11,.49,.36,5.24-.45,10.95-3.69h0c5.71,3.24,10.44,4.06,10.93,3.7,.3-.22,.97-.7,1.38-4.1h.02c3.36,.65,4.02,.16,4.33-.05,.49-.36,1.19-5.12-.13-11.55,4.85-4.43,7.09-8.67,6.9-9.25-.12-.35-.37-1.14-3.47-2.58v-.02c1.66-2.99,1.4-3.77,1.29-4.13-.19-.58-4.5-2.72-11.03-3.45C31.92,4.44,28.56,1,27.95,1c-.37,0-1.2,0-3.52,2.51h-.02c-2.33-2.51-3.15-2.5-3.52-2.51-.61,0-3.95,3.44-6.67,9.42h0Z"/><path class="cls-1" d="M15.93,12.72c-5.43,.61-9.01,2.37-9.17,2.85-.09,.3-.31,.95,1.08,3.43v.02c-2.59,1.2-2.8,1.85-2.9,2.14-.16,.48,1.7,4.03,5.74,7.71-1.1,5.35-.53,9.31-.12,9.6,.25,.18,.81,.59,3.6,.03h.01c.34,2.84,.9,3.24,1.14,3.42,.41,.3,4.36-.37,9.11-3.07h0c4.75,2.7,8.69,3.38,9.1,3.08,.25-.18,.81-.59,1.14-3.41h.01c2.79,.54,3.35,.13,3.6-.04,.41-.3,.99-4.26-.11-9.61,4.04-3.69,5.9-7.22,5.74-7.7-.1-.29-.31-.95-2.89-2.14v-.02c1.38-2.49,1.17-3.14,1.07-3.43-.16-.48-3.74-2.26-9.18-2.87-2.26-4.98-5.06-7.84-5.56-7.84-.31,0-1,0-2.93,2.09h-.02c-1.94-2.09-2.62-2.08-2.93-2.09-.51,0-3.29,2.86-5.55,7.84h0Z"/><g><path d="M30.36,17.36s-.09-.01-.14-.05c-.32-.21-.74-.53-1.13-.86-1.44-1.21-1.67-1.36-1.9-1.36-.15,0-.29,.06-.46,.19-1.06,.79-1.18,.82-1.28,.82-.12,0-.21-.09-.21-.19,0-.07,.05-.15,.16-.21,.22-.1,.68-.39,1.15-.73,.22-.15,.42-.23,.62-.23,.24,0,.47,.11,.7,.27,.55,.41,1.9,1.48,2.62,1.95,.07,.05,.09,.11,.09,.17,0,.11-.09,.21-.22,.21Zm-1.18-2.31c-.14-.17-.47-.4-.68-.49-.06-.03-.09-.07-.09-.12,0-.07,.07-.14,.17-.14,.11,0,.9,.38,.9,.65,0,.1-.08,.17-.17,.17-.05,0-.09-.02-.13-.07Zm.57-.51c-.14-.17-.47-.39-.69-.49-.07-.03-.09-.07-.09-.12,0-.07,.07-.15,.17-.15,.17,0,.9,.39,.9,.64,0,.1-.08,.18-.17,.18-.05,0-.09-.02-.13-.07Z"/><path d="M26.18,21.07c-.11,0-.17-.09-.17-.17,0-.09,.06-.17,.18-.18,.49-.02,1.52-.04,2.21-.04,.39,0,.58,.2,.58,.43,0,.08-.02,.17-.07,.25-.23,.42-.5,.83-.82,1.22,.58,.35,1.91,1.25,1.91,1.6,0,.12-.1,.22-.21,.22-.06,0-.11-.03-.17-.09-.35-.44-1.16-1.13-1.76-1.46-1.01,1.14-2.24,1.65-2.39,1.65-.11,0-.19-.09-.19-.18,0-.07,.05-.15,.17-.19,1.97-.75,3.08-2.71,3.08-2.95,0-.14-.14-.14-.35-.14-.49,0-1.44,.03-1.99,.04h0Z"/><path d="M27.46,26.61l-.02,1.75s.04-.01,.06-.01c.21,0,1.36,.29,1.77,.6,.06,.05,.09,.11,.09,.17,0,.11-.08,.21-.19,.21-.04,0-.09-.01-.13-.05-.33-.25-1.2-.53-1.57-.59-.01,0-.03,0-.04-.01v.82c0,.74,0,1.44,.01,1.88,0,.18-.13,.24-.22,.24-.1,0-.2-.07-.2-.21h0c.03-.78,.05-2.31,.05-3.51,0-.53,0-.99-.01-1.29h0c0-.13,.09-.19,.19-.19s.2,.06,.2,.19h0Z"/><path d="M19.17,18.11c-.07,.04-.13,.06-.18,.06-.13,0-.21-.09-.21-.19,0-.07,.05-.15,.17-.21,1.06-.53,1.55-1.56,1.55-2.63,0-.11,0-.21-.01-.32v-.03c0-.14,.09-.21,.2-.21s.22,.08,.22,.23c0,.2,0,.39-.02,.59l.07-.04c1.1-.42,1.77-1.1,1.77-1.34,0-.08-.07-.14-.23-.14h-.33c-.86,0-2.28,.02-3.11,.06h-.02c-.14,0-.21-.08-.21-.17s.07-.18,.21-.19c.79-.04,1.87-.04,3.55-.04,.37,0,.59,.19,.59,.45,0,.65-1.78,1.72-2.21,1.72-.05,0-.09-.01-.13-.03-.16,1-.66,1.81-1.68,2.43Z"/><path d="M20.32,21.73c-.27-.26-.78-.49-1.12-.58-.08-.02-.11-.09-.11-.16,0-.09,.07-.2,.19-.2,.05,0,.85,.23,1.32,.59,.06,.05,.09,.11,.09,.17,0,.12-.1,.24-.22,.24-.05,0-.1-.02-.15-.07Zm-.73,2.81c-.15,0-.23-.11-.23-.21,0-.09,.06-.19,.21-.22,1.45-.37,2.87-1.68,3.52-3.11,.03-.07,.11-.11,.18-.11,.1,0,.21,.07,.21,.2,0,.04,0,.09-.03,.13-1.22,2.5-3.58,3.33-3.85,3.33Z"/><path d="M23.64,28.32c-.47-.01-.97-.03-1.47-.03v.29c0,1.26-.51,2.29-1.76,3.01-.06,.03-.11,.05-.16,.05-.11,0-.17-.08-.17-.17,0-.07,.03-.13,.12-.18,1.11-.61,1.62-1.54,1.62-2.69v-.31c-.47,0-.94,0-1.4,.01,0,.45,0,.89,0,1.19,0,.14-.1,.2-.2,.2-.09,0-.18-.05-.18-.17h0c.02-.33,.02-.77,.02-1.21-.5,.01-.98,.03-1.42,.05h-.01c-.13,0-.19-.08-.19-.16s.07-.17,.19-.17l1.44-.03c0-.39-.02-.76-.03-1.03h0c0-.13,.09-.19,.18-.19,.09,0,.18,.06,.19,.19,.01,.26,.02,.63,.03,1.03l1.41-.03c0-.42,0-.84,0-1.07,0-.2,.13-.22,.17-.22,.1,0,.19,.07,.19,.21v1.08c.5,0,1-.01,1.46-.01,.16,0,.23,.08,.23,.17,0,.09-.08,.19-.21,.19h0Z"/><path d="M20.89,33.47c0-.13,.09-.19,.19-.19,.1,0,.2,.07,.2,.19v4.08c0,.13-.1,.19-.2,.19-.09,0-.19-.06-.19-.19v-4.08Z"/></g></g></svg>