<?xml version="1.0" encoding="UTF-8"?><svg id="_レイヤー_2" xmlns="http://www.w3.org/2000/svg" viewBox="0 0 404.39 279.75"><defs><style>.cls-1{fill:#faaf3b;}.cls-2{fill:none;stroke:#000;stroke-linecap:round;stroke-linejoin:round;stroke-width:2px;}</style></defs><g id="_レイヤー_4"><path class="cls-2" d="M136.59,1h247.07c10.9,0,19.74,8.84,19.74,19.74V216.83c0,10.9-8.84,19.74-19.74,19.74h-38.41"/><g><path class="cls-1" d="M344.96,278.75l-77.13-20.94H20.74c-10.9,0-19.74-8.84-19.74-19.74V41.98c0-5.45,2.21-10.38,5.78-13.95L28.03,6.78c-3.57,3.57-5.78,8.51-5.78,13.95V216.83c0,10.9,8.83,19.74,19.74,19.74h247.65l55.32,42.19Z"/><g><path class="cls-2" d="M28.03,6.78c-3.57,3.57-5.78,8.51-5.78,13.95V216.83c0,10.9,8.83,19.74,19.74,19.74h247.65l55.32,42.19-77.13-20.94H20.74c-10.9,0-19.74-8.84-19.74-19.74V41.98c0-5.45,2.21-10.38,5.78-13.95L28.03,6.78Z"/><path class="cls-2" d="M80.99,1H41.98c-5.45,0-10.38,2.21-13.95,5.78"/></g></g></g></svg>