<?xml version="1.0" encoding="UTF-8"?><svg id="_レイヤー_2" xmlns="http://www.w3.org/2000/svg" viewBox="0 0 1250.45 391.33"><defs><style>.cls-1{fill:#faaf3b;}.cls-2{fill:none;stroke:#000;stroke-linecap:round;stroke-linejoin:round;stroke-width:2px;}</style></defs><g id="_レイヤー_4"><g><path class="cls-2" d="M182.7,1H1223c14.61,0,26.45,11.84,26.45,26.45V290.23c0,14.61-11.84,26.45-26.45,26.45h-51.48"/><g><path class="cls-1" d="M1173.63,390.33l-105.85-45.18H27.45c-14.61,0-26.45-11.84-26.45-26.45V55.93c0-7.31,2.96-13.93,7.75-18.71L37.22,8.75c-4.79,4.77-7.75,11.39-7.75,18.7V290.24c0,14.6,11.84,26.45,26.45,26.45H1097l76.63,73.64Z"/><g><path class="cls-2" d="M37.22,8.75c-4.79,4.77-7.75,11.39-7.75,18.7V290.24c0,14.6,11.84,26.45,26.45,26.45H1097l76.63,73.64-105.85-45.18H27.45c-14.61,0-26.45-11.84-26.45-26.45V55.93c0-7.31,2.96-13.93,7.75-18.71L37.22,8.75Z"/><path class="cls-2" d="M108.19,1H55.92c-7.3,0-13.91,2.96-18.7,7.75"/></g></g></g></g></svg>